<svg width="153" height="153" viewBox="0 0 153 153" fill="none" xmlns="http://www.w3.org/2000/svg">
<rect width="153" height="153" rx="25" fill="#303E9F"/>
<path d="M36.592 117V109.916H40.596L45.26 117H55.028L47.284 105.604L55.16 94.824H45.392L40.508 102.524H36.592V87.52H28.32V117H36.592ZM63.7788 117V111.016H64.2188C64.9228 115.416 67.5628 117.44 72.7548 117.44C79.5308 117.44 83.2708 113.084 83.2708 105.912C83.2708 98.696 79.6188 94.384 73.1068 94.384C67.8708 94.384 65.4068 96.848 64.7468 100.544H64.3068V87.52H56.0348V117H63.7788ZM64.3068 105.956V105.648C64.3068 102.524 66.0668 101.908 69.7628 101.908C73.5908 101.908 74.9108 102.964 74.9108 105.912C74.9108 108.86 73.5908 109.872 69.7628 109.872C66.0668 109.872 64.3068 109.168 64.3068 105.956ZM93.2124 117V111.016H93.6524C94.3564 115.416 96.9964 117.44 102.188 117.44C108.964 117.44 112.704 113.084 112.704 105.912C112.704 98.696 109.052 94.384 102.54 94.384C97.3044 94.384 94.8404 96.848 94.1804 100.544H93.7404V87.52H85.4684V117H93.2124ZM93.7404 105.956V105.648C93.7404 102.524 95.5004 101.908 99.1964 101.908C103.024 101.908 104.344 102.964 104.344 105.912C104.344 108.86 103.024 109.872 99.1964 109.872C95.5004 109.872 93.7404 109.168 93.7404 105.956ZM123.174 92.8V87.52H114.902V92.8H123.174ZM123.174 117V94.824H114.902V117H123.174Z" fill="white"/>
<path d="M59.8592 43.8559C60.6574 42.1689 62.0993 40.8731 63.8615 40.2591L80.7002 34.3923C85.0676 32.8707 89.6769 35.953 89.9399 40.571L91.0182 59.5045C91.2456 63.4987 88.0684 66.8624 84.0684 66.8624H59.9695C54.8606 66.8624 51.4921 61.5414 53.6773 56.9226L59.8592 43.8559Z" fill="white"/>
<path d="M63.5929 69.6162C64.5854 71.5417 66.4641 73.0263 68.9552 73.3205L91.2221 75.9509C95.5266 76.4594 99.2441 72.9521 98.9874 68.6246L97.7669 48.0462C97.5817 44.9246 95.4685 42.6073 92.8542 41.799C92.9921 42.2842 93.0797 42.7944 93.1099 43.3247L94.1881 62.2582C94.4156 66.2524 91.2384 69.6162 87.2383 69.6162H63.5929Z" fill="white"/>
</svg>
